# Blender v2.90.1 OBJ File: 'dode_orig.blend'
# www.blender.org
mtllib dode.mtl
o Icosphere.001_Icosphere.002
v 0.140893 -0.433616 -0.596832
v 0.455934 0.000000 -0.596832
v -0.368858 -0.267990 -0.596832
v -0.368858 0.267990 -0.596832
v 0.140893 0.433616 -0.596832
v 0.737718 0.000000 -0.140893
v 0.227967 -0.701606 -0.140893
v -0.596826 -0.433616 -0.140893
v -0.596826 0.433616 -0.140893
v 0.227967 0.701606 -0.140893
v 0.596826 -0.433616 0.140893
v -0.227967 -0.701606 0.140893
v -0.737718 0.000000 0.140893
v -0.227967 0.701606 0.140893
v 0.596826 0.433616 0.140893
v 0.368858 -0.267990 0.596832
v -0.140893 -0.433616 0.596832
v -0.455934 -0.000000 0.596832
v -0.140893 0.433616 0.596832
v 0.368858 0.267990 0.596832
vt 0.345491 0.249993
vt 0.154507 0.249996
vt 0.095490 0.095491
vt 0.249999 0.000000
vt 0.404507 0.095487
vt 0.500000 0.345489
vt 0.500000 0.654504
vt 0.404508 0.595485
vt 0.250000 0.809013
vt 0.095491 0.595489
vt 0.000000 0.654511
vt 0.000000 0.345496
vt 0.595493 0.095487
vt 0.750001 0.000000
vt 0.750000 0.190987
vt 0.595491 0.404511
vt 0.904510 0.095491
vt 1.000000 0.345496
vt 0.904508 0.404515
vt 0.404510 0.904509
vt 0.250001 1.000000
vt 0.654507 0.750004
vt 0.595490 0.904508
vt 0.095493 0.904513
vt 1.000000 0.654511
vt 0.904507 0.904512
vt 0.845490 0.750007
vt 0.749999 1.000000
vn -0.0000 0.0000 -1.0000
vn 0.7236 -0.5257 -0.4472
vn -0.2764 -0.8507 -0.4472
vn -0.8944 0.0000 -0.4472
vn 0.7236 0.5257 -0.4472
vn -0.2764 0.8507 -0.4472
vn 0.2764 -0.8507 0.4472
vn 0.8944 -0.0000 0.4472
vn -0.7236 -0.5257 0.4472
vn -0.7236 0.5257 0.4472
vn 0.0000 0.0000 1.0000
vn 0.2764 0.8507 0.4472
usemtl textured
s off
f 1/1/1 3/2/1 4/3/1 5/4/1 2/5/1
f 1/1/2 2/5/2 6/6/2 11/7/2 7/8/2
f 3/2/3 1/1/3 7/8/3 12/9/3 8/10/3
f 4/3/4 3/2/4 8/10/4 13/11/4 9/12/4
f 6/6/5 2/13/5 5/14/5 10/15/5 15/16/5
f 5/14/6 4/17/6 9/18/6 14/19/6 10/15/6
f 12/9/7 7/8/7 11/7/7 16/20/7 17/21/7
f 11/7/8 6/6/8 15/16/8 20/22/8 16/23/8
f 13/11/9 8/10/9 12/9/9 17/21/9 18/24/9
f 14/19/10 9/18/10 13/25/10 18/26/10 19/27/10
f 17/28/11 16/23/11 20/22/11 19/27/11 18/26/11
f 15/16/12 10/15/12 14/19/12 19/27/12 20/22/12
