# Blender v2.82 (sub 7) OBJ File: 'untitled.blend1'
# www.blender.org
mtllib octo.mtl
o Cube
v 1.000000 -0.000000 0.000000
v -0.000000 -0.000000 -1.000000
v -0.000000 1.000000 0.000000
v -0.000000 -1.000000 0.000000
v -0.000000 -0.000000 1.000000
v -1.000000 -0.000000 0.000000
vt 0.500000 0.375000
vt 0.625000 0.375000
vt 0.500000 0.500000
vt 0.250000 0.625000
vt 0.250000 0.500000
vt 0.375000 0.625000
vt 0.500000 0.625000
vt 0.625000 0.625000
vt 0.500000 0.750000
vt 0.375000 0.625000
vt 0.500000 0.250000
vt 0.500000 0.125000
vt 0.500000 0.250000
vt 0.375000 0.125000
vt 0.500000 0.000000
vt 0.625000 0.125000
vt 0.250000 0.750000
vt 0.125000 0.625000
vn 0.5774 0.5774 -0.5774
vn 0.5774 -0.5774 -0.5774
vn 0.5774 0.5774 0.5774
vn 0.5774 -0.5774 0.5774
vn -0.5774 0.5774 -0.5774
vn -0.5774 -0.5774 -0.5774
vn -0.5774 0.5774 0.5774
vn -0.5774 -0.5774 0.5774
usemtl textured
s off
f 2/1/1 3/2/1 1/3/1
f 4/4/2 2/5/2 1/6/2
f 1/7/3 3/8/3 5/9/3
f 1/7/4 5/9/4 4/10/4
f 2/1/5 6/11/5 3/2/5
f 6/12/6 2/13/6 4/14/6
f 6/12/7 5/15/7 3/16/7
f 4/4/8 5/17/8 6/18/8
